<?xml version="1.0" encoding="UTF-8"?>
<svg version="1.1" xmlns="http://www.w3.org/2000/svg" width="192" height="192">
<path d="M0 0 C7.79036929 6.18410758 12.73273492 13.71543557 15.0625 23.375 C15.23378418 24.04281494 15.40506836 24.71062988 15.58154297 25.39868164 C16.26604375 29.63459482 16.24544002 33.8168469 16.265625 38.1015625 C16.27132507 39.04502533 16.27702515 39.98848816 16.28289795 40.96054077 C16.29232838 42.95594163 16.29887414 44.95135793 16.30273438 46.94677734 C16.31239992 49.96870874 16.34342558 52.98994792 16.375 56.01171875 C16.45692253 70.9211555 15.46947405 85.08910764 4.9453125 96.64453125 C-5.32377099 106.08271379 -16.87127535 108.91475288 -30.5 108.75 C-31.46357422 108.76160156 -32.42714844 108.77320313 -33.41992188 108.78515625 C-46.21994559 108.73336924 -56.75103124 104.3222401 -66.25 95.75 C-77.07801586 84.26574076 -77.29461858 67.78131574 -77.25317383 52.93334961 C-77.25001919 50.57683753 -77.2735332 48.22159182 -77.29882812 45.86523438 C-77.36177006 30.88250152 -75.9010341 15.69926986 -65.375 4.125 C-48.67345597 -11.47152694 -18.66762403 -12.47876356 0 0 Z M-48.9375 19.375 C-52.24085957 24.16767084 -54.04009984 28.56544608 -54.09863281 34.37402344 C-54.10824036 35.14872986 -54.1178479 35.92343628 -54.12774658 36.72161865 C-54.13199646 37.55082825 -54.13624634 38.38003784 -54.140625 39.234375 C-54.14632507 40.09758362 -54.15202515 40.96079224 -54.15789795 41.85015869 C-54.16733294 43.67580953 -54.17387596 45.50147729 -54.17773438 47.32714844 C-54.187417 50.10121911 -54.21844483 52.87454128 -54.25 55.6484375 C-54.25653308 57.42707896 -54.26178235 59.20572569 -54.265625 60.984375 C-54.2779718 61.80548767 -54.2903186 62.62660034 -54.30303955 63.47259521 C-54.27401469 71.08704372 -52.48603339 77.82646661 -46.9375 83.375 C-39.57701711 88.46542742 -32.71713017 89.1480492 -23.9375 88.375 C-17.28008231 86.6980177 -12.60711131 83.1621575 -8.9375 77.375 C-6.40595976 72.56184678 -6.6145172 67.84873833 -6.6015625 62.54296875 C-6.5949057 61.5923909 -6.5882489 60.64181305 -6.58139038 59.66242981 C-6.57128321 57.65444874 -6.56657276 55.64643421 -6.56689453 53.63842773 C-6.56252965 50.58325122 -6.52621221 47.52952976 -6.48828125 44.47460938 C-6.48241085 42.51823407 -6.47844295 40.56185195 -6.4765625 38.60546875 C-6.46219147 37.69999802 -6.44782043 36.79452728 -6.43301392 35.86161804 C-6.48242075 28.9228683 -8.15892341 23.73001789 -12.61328125 18.3515625 C-18.70403889 13.32196311 -24.53907023 11.94210206 -32.37890625 12.12109375 C-38.71261116 12.74962935 -44.44477838 14.75391491 -48.9375 19.375 Z " fill="#0302DB" transform="translate(125.9375,43.625)"/>
<path d="M0 0 C1.04929688 0.44085938 2.09859375 0.88171875 3.1796875 1.3359375 C21.82794429 9.89336038 38.55660156 26.28372162 45.79296875 45.58203125 C52.99162125 66.06906337 52.42609481 85.44389746 43.7265625 105.4609375 C41.09572457 110.85356005 37.82543501 115.39818519 34 120 C33.32195312 120.84046875 32.64390625 121.6809375 31.9453125 122.546875 C15.80589234 141.58311416 -7.5121927 151.99049265 -32 155 C-36.25491289 155.27792588 -40.4868613 155.33419536 -44.75 155.3125 C-45.88453613 155.30831055 -47.01907227 155.30412109 -48.18798828 155.29980469 C-57.12896813 155.18013331 -65.35220378 154.30674472 -74 152 C-75.01320313 151.73316406 -76.02640625 151.46632812 -77.0703125 151.19140625 C-99.4104629 144.48936113 -120.66535174 129.84639982 -132.02978516 109.12207031 C-141.51341931 90.36066284 -143.95256647 70.28034872 -137.73193359 50.12011719 C-130.59858387 29.45767256 -114.6885922 11.70010768 -95.05322266 2.04248047 C-64.48233137 -12.06104493 -31.05051735 -13.25022077 0 0 Z M-118.1875 32.37109375 C-130.22036377 46.61454045 -134.50923839 62.68700913 -133 81 C-131.14258769 94.20310582 -124.74673205 105.15131746 -116 115 C-115.46890625 115.61359375 -114.9378125 116.2271875 -114.390625 116.859375 C-98.80718143 133.67715073 -74.60603638 142.23586813 -52.171875 143.48046875 C-25.15510914 144.32624639 0.42663399 138.12956839 21 120 C21.83015625 119.28070313 22.6603125 118.56140625 23.515625 117.8203125 C33.74037065 108.32590583 42.23621355 94.22656197 43.12475586 80.00292969 C43.45840847 70.37793549 43.69313693 61.04685701 40 52 C39.55914062 50.90558594 39.11828125 49.81117187 38.6640625 48.68359375 C29.85225063 29.10417763 12.05298002 15.40643298 -7.6875 7.75 C-45.7605887 -6.12313331 -90.4367084 2.29121785 -118.1875 32.37109375 Z " fill="#0301DB" transform="translate(141,20)"/>
</svg>
